<svg xmlns="http://www.w3.org/2000/svg" viewBox="0 0 500 500"><g id="freepik--robot-face--inject-2"><path d="M314.26,335.68l-63.92,12.25-63.92-12.25S180.86,382,167,409.19c0,0,32,34.71,83.38,50.37,51.42-15.66,83.38-50.37,83.38-50.37C319.82,382,314.26,335.68,314.26,335.68Z" style="fill:#DA7B3E"></path><path d="M250.34,460.06l-.15,0c-50.95-15.52-83.28-50.16-83.6-50.51a.52.52,0,0,1-.08-.57c13.7-26.83,19.35-72.88,19.41-73.34a.5.5,0,0,1,.2-.34.45.45,0,0,1,.39-.09l63.83,12.23,63.83-12.23a.45.45,0,0,1,.39.09.5.5,0,0,1,.2.34c.06.46,5.71,46.51,19.41,73.34a.52.52,0,0,1-.08.57c-.32.35-32.65,35-83.61,50.51Zm-82.77-51c3,3.17,34.46,35.18,82.77,49.94,48.31-14.76,79.75-46.77,82.77-49.94-12.86-25.46-18.6-67.61-19.28-72.83l-63.4,12.15h-.18l-63.41-12.15C186.17,341.49,180.43,383.64,167.57,409.1Z" style="fill:#263238"></path><path d="M186.42,335.68s-1.14,9.47-3.67,22.36c14.27,16.38,37.62,38.75,67.59,51.83-8.25-18.75-26.1-46.06-43.05-70.19Z" style="fill:#fff"></path><path d="M250.34,410.37a.45.45,0,0,1-.2,0c-30-13.11-53.42-35.49-67.77-52a.51.51,0,0,1-.11-.43c2.49-12.72,3.65-22.23,3.66-22.32a.5.5,0,0,1,.2-.34.45.45,0,0,1,.39-.09l20.87,4a.52.52,0,0,1,.32.2c21.63,30.79,36.13,54.44,43.1,70.28a.49.49,0,0,1-.11.55A.47.47,0,0,1,250.34,410.37ZM183.28,357.9c14.11,16.15,36.91,37.94,66.07,51C242.23,393.15,228,370,207,340.13l-20.15-3.86C186.57,338.43,185.42,347,183.28,357.9Z" style="fill:#263238"></path><path d="M314.26,335.68l-20.87,4c-16.95,24.13-34.8,51.44-43,70.19,30-13.08,53.32-35.45,67.59-51.83C315.4,345.15,314.26,335.68,314.26,335.68Z" style="fill:#fff"></path><path d="M250.34,410.37a.47.47,0,0,1-.35-.15.49.49,0,0,1-.11-.55c7-15.85,21.48-39.49,43.1-70.28a.52.52,0,0,1,.32-.2l20.87-4a.45.45,0,0,1,.39.09.5.5,0,0,1,.2.34c0,.09,1.16,9.6,3.66,22.32a.51.51,0,0,1-.11.43c-14.35,16.47-37.75,38.85-67.77,52A.45.45,0,0,1,250.34,410.37Zm43.35-70.24c-21,29.9-35.24,53-42.36,68.76,29.16-13.05,52-34.84,66.07-51-2.14-10.94-3.29-19.47-3.57-21.63Z" style="fill:#263238"></path><path d="M314.88,310c-20.31,27.35-52.56,72.66-64.54,99.9,32.08-14,56.59-38.65,70.48-55.21C317.7,335.89,315.78,318.86,314.88,310Z" style="fill:#fff"></path><path d="M250.34,410.37a.47.47,0,0,1-.35-.15.49.49,0,0,1-.11-.55c12.2-27.72,45.71-74.55,64.6-100a.5.5,0,0,1,.53-.19.51.51,0,0,1,.37.44c.86,8.56,2.79,25.76,5.94,44.66a.52.52,0,0,1-.11.4c-14.8,17.64-39.08,41.56-70.67,55.35A.45.45,0,0,1,250.34,410.37Zm64.17-99.07c-18.72,25.27-50.78,70.2-63.18,97.59,30.73-13.75,54.4-37.06,69-54.38C317.31,336.58,315.43,320.2,314.51,311.3Z" style="fill:#263238"></path><path d="M179.85,354.66c13.9,16.56,38.41,41.2,70.49,55.21-12-27.24-44.23-72.55-64.54-99.9C184.9,318.86,183,335.89,179.85,354.66Z" style="fill:#fff"></path><path d="M250.34,410.37a.45.45,0,0,1-.2,0c-31.59-13.79-55.87-37.71-70.67-55.35a.52.52,0,0,1-.11-.4c3.15-18.9,5.08-36.1,5.94-44.66a.51.51,0,0,1,.37-.44.5.5,0,0,1,.53.19c18.89,25.45,52.4,72.28,64.6,100a.49.49,0,0,1-.11.55A.47.47,0,0,1,250.34,410.37Zm-70-55.86c14.56,17.32,38.23,40.63,69,54.38-12.4-27.39-44.46-72.32-63.18-97.59C185.25,320.2,183.37,336.58,180.39,354.51Z" style="fill:#263238"></path><ellipse cx="248.98" cy="374.14" rx="35.73" ry="18.04" style="fill:#263238"></ellipse><path d="M249,392.67c-20,0-36.24-8.31-36.24-18.53S229,355.6,249,355.6s36.23,8.31,36.23,18.54S269,392.67,249,392.67Zm0-36.07c-19.43,0-35.24,7.87-35.24,17.54s15.81,17.53,35.24,17.53,35.23-7.86,35.23-17.53S268.41,356.6,249,356.6Z" style="fill:#263238"></path><ellipse cx="248.98" cy="396.6" rx="28.16" ry="14.22" style="fill:#263238"></ellipse><path d="M249,411.31c-15.81,0-28.67-6.6-28.67-14.71s12.86-14.72,28.67-14.72,28.66,6.6,28.66,14.72S264.78,411.31,249,411.31Zm0-28.43c-15.26,0-27.67,6.15-27.67,13.72s12.41,13.71,27.67,13.71,27.66-6.15,27.66-13.71S264.23,382.88,249,382.88Z" style="fill:#263238"></path><ellipse cx="248.98" cy="414.97" rx="21.42" ry="10.81" style="fill:#263238"></ellipse><path d="M249,426.29c-12.09,0-21.92-5.08-21.92-11.32s9.83-11.31,21.92-11.31S270.9,408.74,270.9,415,261.07,426.29,249,426.29Zm0-21.63c-11.54,0-20.92,4.63-20.92,10.31s9.38,10.32,20.92,10.32S269.9,420.66,269.9,415,260.52,404.66,249,404.66Z" style="fill:#263238"></path><path d="M351.09,108.15A85.06,85.06,0,0,0,344.26,96c-19.64-29-60.1-51.79-94.86-49.63C214.64,44.22,174.18,67,154.54,96a85.06,85.06,0,0,0-6.83,12.14c-9.69,21.09-10.28,44.72-8.17,68.35,1,11.37,1,27.53,6.08,38,1,2.15,11.93,25.31,11.93,45.24s6.23,65.17,20.76,76.49,34.77,28,49.3,30.16a143.84,143.84,0,0,0,43.58,0c14.53-2.16,34.77-18.85,49.3-30.16s20.76-56.56,20.76-76.49,10.89-43.09,11.93-45.24c5.06-10.5,5.07-26.66,6.08-38C361.37,152.87,360.78,129.24,351.09,108.15Z" style="fill:#fff"></path><path d="M250.63,368.59h-1.24a137.23,137.23,0,0,1-21.86-1.67c-13.45-2-31.39-16.05-45.8-27.34L178,336.65c-14.62-11.38-20.95-56.42-20.95-76.88,0-19.77-10.67-42.5-11.88-45-4.11-8.52-4.9-20.48-5.6-31-.17-2.54-.33-4.93-.53-7.16-1.77-19.77-2.43-45.43,8.22-68.6a85,85,0,0,1,6.87-12.21c20.63-30.52,61.61-51.94,95.3-49.85,33.63-2.1,74.61,19.33,95.24,49.85a85,85,0,0,1,6.87,12.21h0c10.65,23.17,10,48.83,8.22,68.6-.2,2.23-.36,4.62-.53,7.16-.7,10.55-1.49,22.52-5.6,31-1.21,2.53-11.88,25.24-11.88,45,0,20.46-6.33,65.5-20.95,76.88l-3.73,2.92c-14.42,11.29-32.35,25.35-45.8,27.34A143.19,143.19,0,0,1,250.63,368.59Zm-1.24-1a136.18,136.18,0,0,0,21.73-1.66c13.19-1.95,31-15.92,45.33-27.14l3.73-2.92c14.36-11.17,20.57-55.79,20.57-76.09,0-20,10.75-42.91,12-45.46,4-8.35,4.81-20.21,5.51-30.68.16-2.54.32-4.94.52-7.18,1.76-19.64,2.42-45.14-8.13-68.09a84.51,84.51,0,0,0-6.79-12.07c-20.45-30.25-61-51.48-94.41-49.41C216,44.8,175.41,66,155,96.29a84.57,84.57,0,0,0-6.8,12.07c-10.54,23-9.88,48.45-8.12,68.09.19,2.24.35,4.64.52,7.19.7,10.46,1.49,22.32,5.51,30.67,1.23,2.55,12,25.46,12,45.46,0,20.3,6.21,64.92,20.57,76.09l3.73,2.92C196.67,350,214.49,364,227.68,365.92A136.05,136.05,0,0,0,249.39,367.58Z" style="fill:#263238"></path><path d="M293.73,284.63c-3.61-8.27-23.29-24-23.29-24L248.78,249l-21.65,11.68s-19.68,15.7-23.3,24,10.26,19.8,10.26,19.8h70.62S297.35,292.9,293.73,284.63Z" style="fill:#fff"></path><path d="M284.71,304.92H214.09a.54.54,0,0,1-.32-.11c-.58-.48-14.12-11.87-10.4-20.38,3.63-8.29,22.64-23.52,23.45-24.16l21.73-11.73a.49.49,0,0,1,.47,0l21.65,11.68c.89.69,19.9,15.92,23.52,24.21,3.72,8.49-8.62,19.88-9.15,20.36A.46.46,0,0,1,284.71,304.92Zm0-.5h0Zm-70.43-.5h70.23c1.35-1.28,12-11.71,8.77-19.09-3.53-8.06-23-23.63-23.15-23.78l-21.35-11.5L227.37,261.1c-.12.1-19.55,15.67-23.08,23.73C201.05,292.23,212.86,302.71,214.28,303.92Z" style="fill:#263238"></path><path d="M248.85,298.91a.47.47,0,0,1-.25-.07l-9.81-5.75a.5.5,0,0,1-.24-.5l3.54-28.69a.5.5,0,0,1,.49-.44h6.27a.5.5,0,0,1,.5.5v34.45a.47.47,0,0,1-.25.43A.43.43,0,0,1,248.85,298.91Zm-9.27-6.52,8.77,5.15V264.46H243Z" style="fill:#263238"></path><path d="M248.85,298.91a.42.42,0,0,1-.24-.07.48.48,0,0,1-.26-.43V264a.5.5,0,0,1,.5-.5h6.28a.5.5,0,0,1,.49.44l3.54,28.69a.5.5,0,0,1-.24.5l-9.81,5.75A.48.48,0,0,1,248.85,298.91Zm.5-34.45v33.08l8.78-5.15-3.45-27.93Z" style="fill:#263238"></path><path d="M214.09,304.43h70.62s-22.28-12.72-26-11.77-9.43,4.2-9.43,4.2-6.9-4.67-10.2-4.2S214.09,304.43,214.09,304.43Z" style="fill:#DA7B3E"></path><path d="M284.71,304.92H214.09a.48.48,0,0,1-.48-.38.5.5,0,0,1,.25-.56c.89-.46,21.77-11.34,25.11-11.82,3.11-.45,9,3.25,10.29,4.11a46.47,46.47,0,0,1,9.29-4.1c3.84-.94,24.11,10.51,26.4,11.82a.49.49,0,0,1,.24.56A.5.5,0,0,1,284.71,304.92Zm-68.57-1h66.67c-8.89-5-21.56-11.4-24-10.78-3.66.91-9.24,4.12-9.3,4.15a.51.51,0,0,1-.53,0c-.06,0-6.78-4.56-9.85-4.12C236.77,293.49,224,299.88,216.14,303.92Z" style="fill:#263238"></path><path d="M214.09,304.43s13,15.34,34.69,15.34,35.93-15.34,35.93-15.34Z" style="fill:#DA7B3E"></path><path d="M248.78,320.27c-21.68,0-34.94-15.37-35.07-15.52a.51.51,0,0,1,.38-.83h70.62a.5.5,0,0,1,.36.84C284.93,304.92,270.45,320.27,248.78,320.27Zm-33.54-15.35c3.07,3.17,15.24,14.35,33.54,14.35s31.35-11.16,34.71-14.35Z" style="fill:#263238"></path><path d="M178.66,216.87a27.67,27.67,0,0,1-26-3.08L144,207.72l-.81-.13a39.13,39.13,0,0,0,2.48,6.94c1,2.15,11.93,25.31,11.93,45.24s6.23,65.17,20.76,76.49c9,7,20.17,16.06,30.83,22.46-.17-7.35-.9-19.15-3.62-26.29-4.17-11-29.22-32.87-26.61-54.27,1.08-8.91,6.79-16.83,13.07-23a62,62,0,0,0,18.73-44.08v-1.53l-11.45-.76Z" style="fill:#263238"></path><path d="M209.14,359.22a.48.48,0,0,1-.26-.07c-9.26-5.56-18.77-13-27.16-19.6l-3.72-2.9c-14.62-11.38-20.95-56.42-20.95-76.88,0-19.77-10.67-42.5-11.88-45a38.89,38.89,0,0,1-2.52-7,.49.49,0,0,1,.12-.46.51.51,0,0,1,.45-.16l.81.13a.52.52,0,0,1,.2.09l8.68,6.07a27.15,27.15,0,0,0,25.57,3h0l20.59-8.11a.54.54,0,0,1,.22,0l11.45.76a.5.5,0,0,1,.47.5v1.53a62.17,62.17,0,0,1-18.88,44.43c-7.66,7.57-12,15.22-12.93,22.74-1.75,14.41,9.08,28.9,17.79,40.53,4,5.35,7.45,10,8.8,13.5,2.66,7,3.46,18.25,3.65,26.46a.48.48,0,0,1-.25.44A.43.43,0,0,1,209.14,359.22Zm-65.3-151a36.78,36.78,0,0,0,2.23,6.06c1.23,2.55,12,25.46,12,45.46,0,20.3,6.21,64.92,20.57,76.09l3.71,2.91c8.14,6.37,17.32,13.57,26.29,19.05-.2-6.81-.94-18.3-3.57-25.21-1.3-3.41-4.71-8-8.66-13.26-8.81-11.78-19.78-26.44-18-41.25,1-7.75,5.39-15.6,13.22-23.33a61.17,61.17,0,0,0,18.58-43.72V210l-10.87-.72-20.49,8.07-.19-.47.19.47a28.1,28.1,0,0,1-26.51-3.14Z" style="fill:#263238"></path><path d="M319.81,216.87a27.69,27.69,0,0,0,26-3.08l8.68-6.07.81-.13a39.93,39.93,0,0,1-2.48,6.94c-1,2.15-11.94,25.31-11.94,45.24s-6.22,65.17-20.75,76.49c-9,7-20.18,16.06-30.84,22.46.18-7.35.9-19.15,3.63-26.29,4.17-11,29.22-32.87,26.61-54.27-1.09-8.91-6.79-16.83-13.07-23a62,62,0,0,1-18.73-44.08v-1.53l11.45-.76Z" style="fill:#263238"></path><path d="M289.33,359.22a.47.47,0,0,1-.25-.07.5.5,0,0,1-.25-.44c.2-8.21,1-19.46,3.66-26.46,1.35-3.54,4.8-8.15,8.8-13.5,8.7-11.63,19.54-26.12,17.78-40.53-.92-7.52-5.27-15.17-12.92-22.74a62.13,62.13,0,0,1-18.88-44.43v-1.53a.49.49,0,0,1,.46-.5l11.45-.76a.54.54,0,0,1,.22,0l20.6,8.11h0a27.12,27.12,0,0,0,25.56-3l8.68-6.07a.56.56,0,0,1,.21-.09l.81-.13a.49.49,0,0,1,.45.16.52.52,0,0,1,.11.46,39.69,39.69,0,0,1-2.51,7c-1.22,2.53-11.89,25.25-11.89,45,0,20.46-6.32,65.5-20.95,76.88l-3.71,2.91c-8.4,6.57-17.91,14-27.17,19.59A.48.48,0,0,1,289.33,359.22ZM288.27,210v1.06a61.17,61.17,0,0,0,18.58,43.72c7.82,7.73,12.27,15.58,13.21,23.33,1.81,14.81-9.16,29.47-18,41.25-4,5.29-7.37,9.85-8.67,13.26-2.63,6.91-3.36,18.4-3.56,25.21,9-5.48,18.15-12.68,26.28-19.05l3.72-2.91c14.35-11.17,20.56-55.79,20.56-76.09,0-20,10.76-42.91,12-45.46a37.12,37.12,0,0,0,2.23-6.06l-8.5,5.95a28.16,28.16,0,0,1-26.51,3.14l-20.49-8.07Z" style="fill:#263238"></path><path d="M350.82,234l-22.44,16.46a10.23,10.23,0,0,0-3.59,11.71l.71,2a10.26,10.26,0,0,0,17.72,2.88l7-8.9Z" style="fill:#fff"></path><path d="M335.21,271.51a10.87,10.87,0,0,1-1.78-.15,10.63,10.63,0,0,1-8.4-7l-.71-2a10.81,10.81,0,0,1,3.76-12.28l22.45-16.45a.47.47,0,0,1,.52,0,.48.48,0,0,1,.27.45l-.63,24.16a.52.52,0,0,1-.11.29l-7,8.89A10.6,10.6,0,0,1,335.21,271.51ZM350.3,235l-21.63,15.85A9.8,9.8,0,0,0,325.26,262l.71,2a9.75,9.75,0,0,0,16.85,2.74l6.87-8.77Z" style="fill:#263238"></path><path d="M149.35,234l22.45,16.46a10.26,10.26,0,0,1,3.59,11.71l-.72,2A10.25,10.25,0,0,1,157,267.08l-7-8.9Z" style="fill:#fff"></path><path d="M165,271.51a10.57,10.57,0,0,1-8.39-4.13l-7-8.89a.46.46,0,0,1-.11-.29L148.85,234a.5.5,0,0,1,.27-.45.49.49,0,0,1,.53,0l22.44,16.45a10.81,10.81,0,0,1,3.77,12.28l-.72,2a10.58,10.58,0,0,1-8.4,7A10.69,10.69,0,0,1,165,271.51ZM150.49,258l6.86,8.77A9.74,9.74,0,0,0,174.2,264l.72-2a9.81,9.81,0,0,0-3.42-11.14L149.88,235Z" style="fill:#263238"></path><path d="M156.8,237.68c-3.51-22.29-9.58-39.7-13.56-38.89l-6.1.4,3,18.64a196.29,196.29,0,0,0,2.32,22.77,192.84,192.84,0,0,0,4.78,22.27l2.69,17,6.1-.4C160,278.69,160.32,260,156.8,237.68Z" style="fill:#fff"></path><path d="M149.88,280.4a.51.51,0,0,1-.5-.42l-2.68-17a192,192,0,0,1-4.78-22.27,195.33,195.33,0,0,1-2.33-22.83l-2.94-18.58a.54.54,0,0,1,.1-.39.52.52,0,0,1,.36-.19l6.1-.4a2.19,2.19,0,0,1,1.7.46c4.07,2.83,9.28,19.17,12.39,38.85S161.05,279,156.07,280l-6.16.41Zm-12.16-80.75,2.86,18.1a197.23,197.23,0,0,0,2.33,22.77,194.44,194.44,0,0,0,4.76,22.22l2.63,16.63,5.64-.37c3.12-.64,4.08-17.74.37-41.24-3-19.13-8.16-35.54-12-38.19a1.35,1.35,0,0,0-1-.29Z" style="fill:#263238"></path><path d="M150.71,238.08c3.51,22.29,3.14,41-.83,41.82s-10-16.61-13.56-38.9-3.15-41,.82-41.81S147.19,215.8,150.71,238.08Z" style="fill:#263238"></path><path d="M147.5,238.7c-2.08-13.18-5.67-23.48-8-23l-3.61.24,1.74,11A116.65,116.65,0,0,0,139,240.42a114,114,0,0,0,2.83,13.18l1.58,10.06,3.61-.23C149.36,263,149.58,251.88,147.5,238.7Z" style="fill:#fff"></path><path d="M143.4,264.16a.49.49,0,0,1-.49-.42l-1.59-10.07a111.85,111.85,0,0,1-2.82-13.17A115.81,115.81,0,0,1,137.11,227l-1.73-11a.54.54,0,0,1,.1-.39.5.5,0,0,1,.36-.18l3.61-.24a1.49,1.49,0,0,1,1.13.31c2.49,1.73,5.54,11.23,7.41,23.11h0c1.55,9.78,2.58,24.59-.88,25.3l-3.67.24Zm-7-47.76,1.66,10.48a115.61,115.61,0,0,0,1.37,13.47,113.84,113.84,0,0,0,2.82,13.11l1.53,9.67,3.15-.2c1.51-.31,2.31-9.66,0-24.15-2-12.83-5.12-21.14-7-22.45a.56.56,0,0,0-.43-.14Z" style="fill:#263238"></path><path d="M143.89,238.94c2.08,13.18,1.86,24.25-.49,24.72s-5.94-9.82-8-23-1.86-24.25.49-24.72S141.81,225.76,143.89,238.94Z" style="fill:#263238"></path><path d="M143.24,264.18a1.65,1.65,0,0,1-.94-.33c-2.49-1.73-5.54-11.23-7.41-23.11-1.54-9.78-2.58-24.59.88-25.3a1.6,1.6,0,0,1,1.21.31c2.49,1.73,5.53,11.23,7.41,23.11h0c1.54,9.78,2.58,24.59-.89,25.29A1.09,1.09,0,0,1,143.24,264.18ZM136,216.42H136c-1.58.32-2.38,9.66-.09,24.15,2,12.84,5.11,21.14,7,22.45a.56.56,0,0,0,.43.14c1.58-.32,2.39-9.66.1-24.16h0c-2-12.82-5.11-21.13-7-22.44A.71.71,0,0,0,136,216.42Z" style="fill:#263238"></path><ellipse cx="204.58" cy="210.19" rx="40.36" ry="32.73" style="fill:#fff"></ellipse><path d="M204.58,243.43c-22.53,0-40.86-14.91-40.86-33.24S182.05,177,204.58,177s40.86,14.91,40.86,33.23S227.11,243.43,204.58,243.43Zm0-65.47c-22,0-39.86,14.46-39.86,32.23s17.88,32.24,39.86,32.24,39.86-14.46,39.86-32.24S226.56,178,204.58,178Z" style="fill:#263238"></path><path d="M225,212.73a2.46,2.46,0,0,0,.24-3.89c-3.05-2.63-6.81-6.91-15.95-7.16-8.11-.23-15.21,3.55-17.5,6.51a3.6,3.6,0,0,0,1.22,5.39,36.39,36.39,0,0,0,15.54,3.92A27.54,27.54,0,0,0,225,212.73Z" style="fill:#DA7B3E"></path><path d="M209.45,218h-.9a36.86,36.86,0,0,1-15.76-4,4.16,4.16,0,0,1-2.14-2.78,4.06,4.06,0,0,1,.75-3.37c2.27-2.93,9.33-6.95,17.91-6.7,8.38.23,12.38,3.82,15.3,6.43.34.3.65.59,1,.85a2.93,2.93,0,0,1,1,2.38,3,3,0,0,1-1.3,2.3A28.12,28.12,0,0,1,209.45,218Zm-.85-15.84c-7.85,0-14.39,3.72-16.41,6.32a3.12,3.12,0,0,0,1.06,4.65A36,36,0,0,0,208.58,217a27.14,27.14,0,0,0,16.15-4.69h0a2,2,0,0,0,.86-1.53,1.9,1.9,0,0,0-.67-1.56l-1-.86c-3-2.66-6.65-6-14.67-6.18Z" style="fill:#263238"></path><path d="M342,237.68c3.52-22.29,9.59-39.7,13.56-38.89l6.1.4-2.94,18.64a194.3,194.3,0,0,1-2.33,22.77,190.76,190.76,0,0,1-4.78,22.27l-2.68,17-6.1-.4C338.9,278.69,338.52,260,342,237.68Z" style="fill:#fff"></path><path d="M349,280.4h0l-6.09-.4c-5-1-4.42-22.6-1.29-42.4h0c3.1-19.68,8.31-36,12.39-38.85a2.22,2.22,0,0,1,1.76-.45l6,.39a.52.52,0,0,1,.36.19.5.5,0,0,1,.11.39l-2.95,18.64a209.22,209.22,0,0,1-7.12,45.1l-2.67,17A.5.5,0,0,1,349,280.4Zm6.38-81.14a1.48,1.48,0,0,0-.84.31c-3.81,2.65-9,19.07-12,38.19h0c-3.71,23.5-2.75,40.6.43,41.25l5.58.36,2.61-16.57a208.33,208.33,0,0,0,7.1-45l2.86-18.16-5.55-.37ZM342,237.68h0Z" style="fill:#263238"></path><ellipse cx="355.33" cy="239.54" rx="40.86" ry="7.33" transform="translate(63.8 553.63) rotate(-81.12)" style="fill:#263238"></ellipse><path d="M351.35,238.7c2.07-13.18,5.67-23.48,8-23l3.6.24-1.74,11a116.46,116.46,0,0,1-1.37,13.46A114,114,0,0,1,357,253.6l-1.59,10.06-3.6-.23C349.49,263,349.27,251.88,351.35,238.7Z" style="fill:#fff"></path><path d="M355.44,264.16h0l-3.61-.24c-3.53-.71-2.49-15.52-.95-25.3,1.88-11.88,4.92-21.38,7.41-23.11a1.54,1.54,0,0,1,1.2-.3l3.55.23a.5.5,0,0,1,.46.57l-1.74,11a118.26,118.26,0,0,1-1.38,13.46,116,116,0,0,1-2.84,13.23l-1.57,10A.5.5,0,0,1,355.44,264.16Zm3.79-48a.72.72,0,0,0-.4.14c-1.88,1.31-5,9.62-7,22.45h0c-2.29,14.49-1.49,23.84.09,24.16l3.09.2,1.52-9.62a116.13,116.13,0,0,0,2.82-13.17,113.8,113.8,0,0,0,1.37-13.41l1.66-10.54-3.06-.2Zm-7.88,22.51h0Z" style="fill:#263238"></path><path d="M355,238.94c-2.08,13.18-1.86,24.25.49,24.72s5.94-9.82,8-23,1.86-24.25-.49-24.72S357,225.76,355,238.94Z" style="fill:#263238"></path><path d="M355.6,264.18l-.26,0c-3.46-.7-2.43-15.51-.88-25.29h0c1.87-11.88,4.92-21.38,7.41-23.11a1.57,1.57,0,0,1,1.2-.31c3.47.71,2.43,15.52.89,25.3-1.88,11.88-4.93,21.38-7.42,23.11A1.63,1.63,0,0,1,355.6,264.18ZM355.45,239c-2.29,14.5-1.49,23.84.09,24.16A.55.55,0,0,0,356,263c1.88-1.3,5-9.61,7-22.45,2.28-14.49,1.48-23.83-.1-24.15a.56.56,0,0,0-.43.14c-1.88,1.31-5,9.62-7,22.44Z" style="fill:#263238"></path><ellipse cx="301.56" cy="210.19" rx="40.36" ry="32.73" style="fill:#fff"></ellipse><path d="M301.56,243.43c-22.53,0-40.86-14.91-40.86-33.24S279,177,301.56,177s40.86,14.91,40.86,33.23S324.09,243.43,301.56,243.43Zm0-65.47c-22,0-39.86,14.46-39.86,32.23s17.88,32.24,39.86,32.24,39.86-14.46,39.86-32.24S323.54,178,301.56,178Z" style="fill:#263238"></path><path d="M281.1,212.73a2.46,2.46,0,0,1-.24-3.89c3.05-2.63,6.81-6.91,15.95-7.16,8.11-.23,15.21,3.55,17.5,6.51a3.6,3.6,0,0,1-1.23,5.39,36.31,36.31,0,0,1-15.54,3.92A27.5,27.5,0,0,1,281.1,212.73Z" style="fill:#DA7B3E"></path><path d="M296.66,218a28.18,28.18,0,0,1-15.85-4.87h0a3,3,0,0,1-1.29-2.3,2.93,2.93,0,0,1,1-2.38c.31-.26.63-.55,1-.85,2.92-2.61,6.92-6.2,15.3-6.43,8.58-.25,15.65,3.77,17.91,6.7a4.06,4.06,0,0,1,.75,3.37,4.13,4.13,0,0,1-2.14,2.78,36.85,36.85,0,0,1-15.75,4Zm.85-15.84h-.69c-8,.22-11.7,3.52-14.66,6.18-.34.3-.66.59-1,.86a1.89,1.89,0,0,0-.66,1.56,1.94,1.94,0,0,0,.86,1.53h0A27.19,27.19,0,0,0,297.53,217a36,36,0,0,0,15.32-3.86,3.11,3.11,0,0,0,1.62-2.11,3,3,0,0,0-.56-2.54C311.9,205.89,305.36,202.17,297.51,202.17Z" style="fill:#263238"></path><circle cx="236.4" cy="260.66" r="9.28" style="fill:#fff"></circle><path d="M236.4,270.43a9.78,9.78,0,1,1,9.78-9.77A9.78,9.78,0,0,1,236.4,270.43Zm0-18.55a8.78,8.78,0,1,0,8.78,8.78A8.79,8.79,0,0,0,236.4,251.88Z" style="fill:#263238"></path><circle cx="262.39" cy="260.66" r="9.28" style="fill:#fff"></circle><path d="M262.39,270.43a9.78,9.78,0,1,1,9.78-9.77A9.78,9.78,0,0,1,262.39,270.43Zm0-18.55a8.78,8.78,0,1,0,8.78,8.78A8.79,8.79,0,0,0,262.39,251.88Z" style="fill:#263238"></path><path d="M248.9,270.73h0A9.94,9.94,0,0,1,239,260.8V199.46h19.86V260.8A9.94,9.94,0,0,1,248.9,270.73Z" style="fill:#fff"></path><path d="M248.9,271.23a10.44,10.44,0,0,1-10.43-10.43V199.46a.5.5,0,0,1,.5-.5h19.86a.5.5,0,0,1,.5.5V260.8A10.44,10.44,0,0,1,248.9,271.23ZM239.47,200V260.8a9.43,9.43,0,0,0,18.86,0V200Z" style="fill:#263238"></path><path d="M351.09,108.15A85.06,85.06,0,0,0,344.26,96c-19.64-29-60.1-51.79-94.86-49.63C214.64,44.22,174.18,67,154.54,96a85.06,85.06,0,0,0-6.83,12.14,89.67,89.67,0,0,0-4.32,11.46c13.39,5.37,33.63,17.32,55.37,43.88C236.94,210.12,239,222.44,251.39,223c12.38-.54,14.45-12.86,52.63-59.49,19.91-24.32,38.55-36.39,51.84-42.37A92.26,92.26,0,0,0,351.09,108.15Z" style="fill:#DA7B3E"></path><path d="M251.41,223.48c-8.12-.35-11.94-5.57-23.3-21.08-6.63-9.07-15.72-21.48-29.74-38.6-21.77-26.59-42-38.45-55.17-43.73a.49.49,0,0,1-.29-.61,90.71,90.71,0,0,1,4.35-11.52,85,85,0,0,1,6.87-12.21c20.63-30.52,61.61-51.94,95.3-49.85,33.63-2.1,74.61,19.33,95.24,49.85a85,85,0,0,1,6.87,12.21h0a92.61,92.61,0,0,1,4.8,13,.5.5,0,0,1-.28.59c-12.34,5.56-31.33,17.41-51.65,42.23-14,17.12-23.11,29.53-29.74,38.6C263.31,217.91,259.49,223.13,251.41,223.48ZM144,119.32c13.27,5.4,33.48,17.38,55.15,43.85,14,17.14,23.13,29.56,29.77,38.64,11.14,15.22,14.9,20.34,22.49,20.67,7.55-.33,11.31-5.45,22.45-20.67,6.64-9.08,15.74-21.5,29.77-38.64,20.24-24.71,39.17-36.65,51.62-42.33a89.85,89.85,0,0,0-4.62-12.48,84.51,84.51,0,0,0-6.79-12.07c-20.45-30.25-61-51.48-94.41-49.41C216,44.8,175.41,66,155,96.29a84.57,84.57,0,0,0-6.8,12.07A90.9,90.9,0,0,0,144,119.32Z" style="fill:#263238"></path><circle cx="250.77" cy="134.61" r="50.46" style="fill:#263238"></circle><path d="M250.77,185.56a51,51,0,1,1,51-50.95A51,51,0,0,1,250.77,185.56Zm0-100.91a50,50,0,1,0,50,50A50,50,0,0,0,250.77,84.65Z" style="fill:#263238"></path><path d="M251.39,137.76c12.38-.54,14.45-12.87,52.63-59.5q5.21-6.35,10.27-11.61C294.68,53.28,271,45,249.4,46.38,228.73,45.1,206.05,52.62,186.93,65c3.87,4,7.83,8.34,11.83,13.23C236.94,124.89,239,137.22,251.39,137.76Z" style="fill:#fff"></path><path d="M251.39,138.26h0c-8.08-.35-11.9-5.58-23.26-21.09-6.63-9.06-15.72-21.47-29.74-38.59-3.83-4.68-7.8-9.12-11.8-13.2a.51.51,0,0,1-.13-.41.45.45,0,0,1,.22-.36c20.22-13.13,43.1-20,62.77-18.73C270,44.6,293.72,52,314.57,66.23a.51.51,0,0,1,.08.76c-3.49,3.65-6.93,7.54-10.24,11.59-14,17.12-23.11,29.53-29.74,38.59-11.36,15.51-15.18,20.74-23.26,21.09ZM187.72,65.12c3.87,4,7.71,8.29,11.43,12.83,14,17.13,23.13,29.56,29.77,38.63,11.13,15.21,14.89,20.34,22.47,20.68,7.58-.34,11.34-5.47,22.47-20.68,6.64-9.07,15.74-21.5,29.77-38.63,3.2-3.91,6.52-7.68,9.89-11.22C293,52.85,269.63,45.63,249.43,46.88,230.08,45.67,207.63,52.32,187.72,65.12Z" style="fill:#263238"></path><path d="M284.73,65.28a4.06,4.06,0,0,1-1.32-.22c-36.65-12.77-64.85-.26-65.13-.14A4,4,0,1,1,215,57.64c1.26-.57,31.43-14,71.07-.13a4,4,0,0,1-1.31,7.77Z" style="fill:#263238"></path><path d="M274.73,83.24a4.06,4.06,0,0,1-1.32-.22c-25.28-8.81-44.94-.22-45.14-.13A4,4,0,0,1,225,75.6c.91-.41,22.63-10,51.07-.14a4,4,0,0,1-1.31,7.78Z" style="fill:#263238"></path><path d="M263.88,101.12a4.06,4.06,0,0,1-1.32-.22c-13.13-4.58-23.35-.17-23.45-.13a4,4,0,0,1-3.3-7.29c.53-.24,13.1-5.81,29.39-.13a4,4,0,0,1-1.32,7.77Z" style="fill:#263238"></path><path d="M344.86,97c-.2-.32-.39-.63-.6-.94a99.65,99.65,0,0,0-10.68-13.13c-14.52,11.13-35.37,28.76-49.7,47.87a9,9,0,1,0,14.4,10.8C311.39,124.07,331.19,107.42,344.86,97Z" style="fill:#263238"></path><path d="M165.35,82.75A98.81,98.81,0,0,0,154.54,96c-.18.26-.34.52-.51.79,13.68,10.46,33.61,27.18,46.79,44.75a9,9,0,1,0,14.4-10.8C200.83,111.56,179.87,93.87,165.35,82.75Z" style="fill:#263238"></path><path d="M281,363.34l-13.57-32.21H232.77l-16.46,31.49a40.66,40.66,0,0,0,11.3,3.8,143.84,143.84,0,0,0,43.58,0A37.94,37.94,0,0,0,281,363.34Z" style="fill:#DA7B3E"></path><path d="M250.63,368.59h-1.24a137.23,137.23,0,0,1-21.86-1.67,40.24,40.24,0,0,1-11.43-3.84.44.44,0,0,1-.26-.29.53.53,0,0,1,0-.39l16.45-31.49a.5.5,0,0,1,.45-.27h34.61a.49.49,0,0,1,.46.3l13.57,32.22a.51.51,0,0,1-.26.65,38.83,38.83,0,0,1-9.88,3.11A143.19,143.19,0,0,1,250.63,368.59Zm-1.24-1a136.12,136.12,0,0,0,21.73-1.66,36.64,36.64,0,0,0,9.17-2.84l-13.24-31.45h-34L217,362.4a39.18,39.18,0,0,0,10.68,3.52A136.05,136.05,0,0,0,249.39,367.58Z" style="fill:#263238"></path><path d="M257.34,118.46a6.73,6.73,0,1,0-6.73,6.73A6.73,6.73,0,0,0,257.34,118.46Z" style="fill:#DA7B3E"></path><path d="M250.61,125.69a7.23,7.23,0,1,1,7.23-7.23A7.23,7.23,0,0,1,250.61,125.69Zm0-13.45a6.23,6.23,0,1,0,6.23,6.22A6.24,6.24,0,0,0,250.61,112.24Z" style="fill:#263238"></path><path d="M172.75,381.83c-2.88,9.66-6.45,19.34-10.79,27.36,0,0,33.88,34.71,88.38,50.37C235.62,437.54,192,398.59,172.75,381.83Z" style="fill:#fff"></path><path d="M250.34,460.06l-.14,0c-54-15.51-88.26-50.15-88.6-50.5a.52.52,0,0,1-.08-.59,145.26,145.26,0,0,0,10.75-27.26.5.5,0,0,1,.34-.34.5.5,0,0,1,.47.1c18.41,16,62.83,55.63,77.68,77.83a.5.5,0,0,1,0,.57A.49.49,0,0,1,250.34,460.06Zm-87.76-51c3.22,3.19,36,34.69,86.56,49.59-15.34-22.06-57.74-60-76.13-76A147.17,147.17,0,0,1,162.58,409.1Z" style="fill:#263238"></path><path d="M338.72,409.19c-4.34-8-7.91-17.7-10.79-27.36-19.28,16.76-62.87,55.71-77.59,77.73C304.84,443.9,338.72,409.19,338.72,409.19Z" style="fill:#fff"></path><path d="M250.34,460.06a.49.49,0,0,1-.4-.21.5.5,0,0,1,0-.57c14.85-22.2,59.27-61.82,77.68-77.83a.5.5,0,0,1,.47-.1.5.5,0,0,1,.34.34A145.26,145.26,0,0,0,339.16,409a.52.52,0,0,1-.08.59c-.34.35-34.6,35-88.6,50.5Zm77.33-77.34c-18.39,16-60.79,53.91-76.13,76,50.52-14.9,83.34-46.4,86.56-49.59A147.17,147.17,0,0,1,327.67,382.72Z" style="fill:#263238"></path></g></svg>